# xmcd CD database file
#
# Track frame offsets:
#	150
#	19262
#	31285
#	41594
#	53116
#	72613
#	102004
#	114709
#	131231
#	157656
#	167665
#	200760
#	214881
#	226789
#	237564
#
# Disc length: 3372 seconds
#
# Revision: 0
# Processed by: cddbd v1.5.1PL0 Copyright (c) Steve Scherf et al.
# Submitted via: CDex 1.51
#
DISCID=d30d2a0f
DTITLE=Various Artist - Standards For You - Summertime
DYEAR=1900
DGENRE=Jazz
TTITLE0=Summertime
TTITLE1=Moon River
TTITLE2=The Girl From Ipanema
TTITLE3=You'd Be So Nice To Come Home To
TTITLE4=Over The Rainbow
TTITLE5=Softly As In A Morning Sunrise
TTITLE6=The Days Of Wine And Roses
TTITLE7=Route 66
TTITLE8=Satin Doll
TTITLE9=Tea For Two
TTITLE10=Begin The Beguine
TTITLE11=Stella By Starlight
TTITLE12=You And The Night And The Music
TTITLE13=Lullaby Of Birdland
TTITLE14=Sentimental Journey
EXTD=
EXTT0=
EXTT1=
EXTT2=
EXTT3=
EXTT4=
EXTT5=
EXTT6=
EXTT7=
EXTT8=
EXTT9=
EXTT10=
EXTT11=
EXTT12=
EXTT13=
EXTT14=
PLAYORDER=
